<svg xmlns="http://www.w3.org/2000/svg" width="78.624" height="15.219" viewBox="0 0 78.624 15.219">
  <g id="Group_68242" data-name="Group 68242" transform="translate(-740 -1222)">
    <path id="Path_13" data-name="Path 13" d="M582.02,319.032c.222-8.413-.177-8.856-8.428-8.472q-32.3,1.269-64.62,2.465V314.5c6.569.355,13.122.8,19.69,1.063q23.617.93,47.351,1.682c2.952.089,1.683.841.516,1.83a3.661,3.661,0,0,0,5.491-.044Z" transform="translate(234.394 911.533)" fill="#fb2b00"/>
    <path id="Path_14" data-name="Path 14" d="M583.916,316.27h-5.535l-8.133.28c-5.3,1.329-10.76-.236-16.074.9a379.616,379.616,0,0,0-46.672,2.405q36.9,1.476,73.8,2.79c1.476,0,3.705.945,4.428-.649A4.516,4.516,0,0,0,583.916,316.27Z" transform="translate(232.497 914.295)" fill="#fb2b00"/>
  </g>
</svg>
