<svg xmlns="http://www.w3.org/2000/svg" width="935" height="666.414" viewBox="0 0 935 666.414">
  <g id="Group_68149" data-name="Group 68149" transform="translate(-493 -973.397)">
    <path id="Path_2960" data-name="Path 2960" d="M274.008,718.71h811.011a1.55,1.55,0,1,0,0-3.1H274.008a1.55,1.55,0,0,0,0,3.1Z" transform="translate(280.963 921.102)" fill="#ccc"/>
    <path id="Path_1261" data-name="Path 1261" d="M410.681,462.669c-47.431-46.692-67.463-95.4-56.409-137.161,14.186-53.586,77.209-90.636,172.908-101.651l.354,3.074C433.166,237.791,371.1,274.01,357.262,326.3c-10.758,40.638,8.984,88.285,55.589,134.166Z" transform="translate(300.109 801.691)" fill="#f0f0f0"/>
    <path id="Path_1262" data-name="Path 1262" d="M844.849,572.736c-59.2,0-123.525-8.8-187.421-25.713-79.016-20.918-151.465-52.493-209.513-91.31l1.719-2.571c57.77,38.629,129.9,70.059,208.586,90.89,71.11,18.826,142.752,27.55,207.157,25.247l.112,3.091Q855.286,572.737,844.849,572.736Z" transform="translate(323.57 857.367)" fill="#f0f0f0"/>
    <path id="Path_1263" data-name="Path 1263" d="M921.434,604.586l-.991-2.93c52.943-17.9,86.057-46.736,95.762-83.392,12.336-46.6-14.464-100.673-75.464-152.264-61.311-51.852-149.723-94.876-248.953-121.146l.792-2.991c99.664,26.386,188.506,69.633,250.159,121.776,61.964,52.4,89.118,107.6,76.458,155.417C1009.214,556.763,975.409,586.339,921.434,604.586Z" transform="translate(382.789 806.063)" fill="#f0f0f0"/>
    <path id="Path_1264" data-name="Path 1264" d="M534.717,587.565C418.4,535.977,328.767,469.048,282.334,399.1l2.577-1.711c46.112,69.459,135.273,135.991,251.06,187.345Z" transform="translate(283.361 843.83)" fill="#f0f0f0"/>
    <path id="Path_1265" data-name="Path 1265" d="M821.619,629.343q-18,0-36.608-.8l.133-3.09c92.593,4.009,174.29-7.072,236.274-32.051l1.157,2.87C968.5,618.056,899.587,629.343,821.619,629.343Z" transform="translate(405.426 891.426)" fill="#f0f0f0"/>
    <path id="Path_1266" data-name="Path 1266" d="M834.915,236.82c-19.225-6.259-39-12.087-58.775-17.323-113.8-30.126-225.662-40.823-323.5-30.928l-.311-3.078c98.207-9.928,210.454.794,324.607,31.014,19.831,5.25,39.662,11.1,58.941,17.373Z" transform="translate(324.641 791.501)" fill="#f0f0f0"/>
    <path id="Path_1267" data-name="Path 1267" d="M352.188,466.4c-47.431-46.692-67.463-95.4-56.409-137.161,14.186-53.586,77.209-90.636,172.908-101.651l.354,3.074c-94.367,10.86-156.428,47.079-170.271,99.368-10.758,40.638,8.984,88.285,55.589,134.166Z" transform="translate(285.906 802.597)" fill="#f0f0f0"/>
    <path id="Path_1268" data-name="Path 1268" d="M786.356,576.469c-59.2,0-123.525-8.8-187.421-25.713-79.016-20.918-151.465-52.492-209.513-91.31l1.719-2.571c57.77,38.629,129.9,70.059,208.586,90.89,71.11,18.826,142.753,27.55,207.157,25.247L807,576.1Q796.795,576.471,786.356,576.469Z" transform="translate(309.365 858.274)" fill="#f0f0f0"/>
    <path id="Path_1269" data-name="Path 1269" d="M862.942,608.32l-.991-2.93c52.943-17.9,86.057-46.736,95.762-83.392,12.336-46.6-14.464-100.673-75.464-152.264C820.938,317.881,732.525,274.857,633.3,248.588l.792-2.991c99.664,26.385,188.506,69.632,250.159,121.775,61.964,52.4,89.118,107.6,76.458,155.417C950.722,560.5,916.916,590.071,862.942,608.32Z" transform="translate(368.586 806.97)" fill="#f0f0f0"/>
    <path id="Path_1270" data-name="Path 1270" d="M476.225,591.3c-116.318-51.589-205.95-118.518-252.383-188.461l2.577-1.711c46.112,69.459,135.273,135.991,251.06,187.345Z" transform="translate(269.158 844.737)" fill="#f0f0f0"/>
    <path id="Path_1271" data-name="Path 1271" d="M763.127,633.077q-18,0-36.608-.8l.133-3.091c92.593,4.009,174.29-7.072,236.274-32.051l1.157,2.87C910.011,621.788,841.1,633.077,763.127,633.077Z" transform="translate(391.223 892.332)" fill="#f0f0f0"/>
    <path id="Path_1272" data-name="Path 1272" d="M776.423,240.553c-19.225-6.259-39-12.088-58.775-17.323-113.8-30.126-225.663-40.823-323.5-30.927l-.311-3.078c98.207-9.928,210.454.794,324.607,31.014,19.831,5.25,39.662,11.1,58.941,17.373Z" transform="translate(310.438 792.408)" fill="#f0f0f0"/>
    <path id="Path_1273" data-name="Path 1273" d="M273.966,359.655c22.23-24.924,57.69-40.114,89.825-31.021a153.874,153.874,0,0,0-60.046,86.922c-3.472,13.569-5.921,29.023-17.206,37.32-7.022,5.162-16.326,6.4-24.961,5.22s-16.8-4.534-24.856-7.862l-2.168.188C240.788,417.611,251.736,384.58,273.966,359.655Z" transform="translate(271.76 826.488)" fill="#f2f2f2"/>
    <path id="Path_1274" data-name="Path 1274" d="M363.654,328.963a131.521,131.521,0,0,0-68.975,42.313,56.64,56.64,0,0,0-9.55,14.956,32.485,32.485,0,0,0-1.917,16.988c.722,5.362,2.081,10.762,1.487,16.206a19.89,19.89,0,0,1-8.43,13.911c-5.643,4.121-12.43,5.968-19.13,7.544-7.439,1.75-15.194,3.449-21.258,8.393-.735.6-1.621-.576-.888-1.174,10.55-8.6,25.213-7.5,36.886-13.745,5.447-2.915,10.048-7.49,11.167-13.767.978-5.489-.419-11.059-1.2-16.482a34.663,34.663,0,0,1,1.256-16.681,52.36,52.36,0,0,1,8.94-15.268,127.6,127.6,0,0,1,29.709-26.605A133.852,133.852,0,0,1,363.48,327.5c.918-.222,1.086,1.241.174,1.462Z" transform="translate(271.799 826.853)" fill="#fff"/>
    <path id="Path_1275" data-name="Path 1275" d="M288.277,362.048a19.733,19.733,0,0,1-.608-25.544c.6-.734,1.767.161,1.168.9a18.272,18.272,0,0,0,.614,23.76C290.084,361.864,288.907,362.748,288.277,362.048Z" transform="translate(283.59 828.978)" fill="#fff"/>
    <path id="Path_1276" data-name="Path 1276" d="M273.314,387.941a38.032,38.032,0,0,0,26.424-8.367c.737-.6,1.624.579.888,1.174a39.559,39.559,0,0,1-27.514,8.651C272.164,389.333,272.372,387.875,273.314,387.941Z" transform="translate(280.973 839.463)" fill="#fff"/>
    <path id="Path_1277" data-name="Path 1277" d="M315.552,336.906a11.169,11.169,0,0,0,9.014,5.575c.947.054.738,1.511-.2,1.458a12.516,12.516,0,0,1-9.985-6.145.761.761,0,0,1,.143-1.031.74.74,0,0,1,1.031.143Z" transform="translate(291.109 829.072)" fill="#fff"/>
    <path id="Path_1278" data-name="Path 1278" d="M409.732,417.485c-.592-.017-1.185-.033-1.785-.04a147.1,147.1,0,0,0-23.821,1.39c-.611.076-1.23.162-1.838.255a155.072,155.072,0,0,0-53.914,18.785,150.59,150.59,0,0,0-18.918,12.87c-8.245,6.579-16.662,14.369-26.315,17.741a25.821,25.821,0,0,1-3.068.9l-44.8-30.951c-.067-.121-.141-.233-.208-.355l-1.845-1.154c.291-.267.6-.538.889-.805.168-.156.346-.3.514-.46.115-.1.231-.2.329-.3.038-.034.077-.068.108-.091.1-.1.2-.179.291-.267q2.57-2.278,5.182-4.528c.007-.01.007-.01.024-.014A221.427,221.427,0,0,1,283.7,400.8c.466-.237.938-.484,1.425-.707a143.7,143.7,0,0,1,21.749-8.771,127.011,127.011,0,0,1,12.461-3.153,105.64,105.64,0,0,1,33.005-1.265c21.928,2.618,42.775,12.219,56.366,29.265C409.053,416.609,409.391,417.039,409.732,417.485Z" transform="translate(271.438 841.104)" fill="#f2f2f2"/>
    <path id="Path_1279" data-name="Path 1279" d="M409.073,414.175a131.521,131.521,0,0,0-80.548-7.743,56.638,56.638,0,0,0-16.63,6.192,32.485,32.485,0,0,0-11.759,12.41c-2.652,4.715-4.818,9.846-8.57,13.835a19.89,19.89,0,0,1-15.107,6.032c-6.987-.107-13.518-2.719-19.816-5.494-6.993-3.082-14.208-6.394-22.026-6.1-.947.036-.948-1.436,0-1.472,13.6-.516,24.645,9.194,37.727,11.234,6.1.952,12.532.07,17.2-4.269,4.086-3.794,6.324-9.082,8.968-13.88a34.663,34.663,0,0,1,11.046-12.562,52.361,52.361,0,0,1,16.331-6.808,127.6,127.6,0,0,1,39.739-3.356A133.856,133.856,0,0,1,409.814,412.9c.867.376.12,1.645-.741,1.272Z" transform="translate(271.602 844.914)" fill="#fff"/>
    <path id="Path_1280" data-name="Path 1280" d="M316.954,407.646a19.732,19.732,0,0,1,14.894-20.761c.92-.226,1.314,1.193.393,1.419a18.272,18.272,0,0,0-13.815,19.341C318.508,408.588,317.035,408.584,316.954,407.646Z" transform="translate(291.752 841.272)" fill="#fff"/>
    <path id="Path_1281" data-name="Path 1281" d="M288.273,418.475a38.033,38.033,0,0,0,26.135,9.229c.947-.033.948,1.439,0,1.472a39.56,39.56,0,0,1-27.177-9.658C286.517,418.895,287.561,417.856,288.273,418.475Z" transform="translate(284.494 848.903)" fill="#fff"/>
    <path id="Path_1282" data-name="Path 1282" d="M351.732,404.492a11.17,11.17,0,0,0,3.841,9.878c.724.613-.32,1.651-1.04,1.042a12.516,12.516,0,0,1-4.273-10.918.761.761,0,0,1,.735-.737.74.74,0,0,1,.737.735Z" transform="translate(299.836 845.375)" fill="#fff"/>
    <path id="Path_1283" data-name="Path 1283" d="M981.616,529.078c-12.56-30.946-40.852-57.171-74.174-59.407A153.875,153.875,0,0,1,934.78,571.717c-1.291,13.947-4.179,29.325,3.662,40.932,4.878,7.222,13.226,11.511,21.755,13.306s17.348,1.376,26.053.949l1.978.905C993.386,594.814,994.175,560.023,981.616,529.078Z" transform="translate(435.156 861.381)" fill="#f2f2f2"/>
    <path id="Path_1284" data-name="Path 1284" d="M907.4,470.5a131.521,131.521,0,0,1,50.741,63.034,56.636,56.636,0,0,1,3.968,17.3,32.485,32.485,0,0,1-3.9,16.645c-2.482,4.807-5.577,9.437-6.847,14.763a19.89,19.89,0,0,0,3.264,15.936c3.93,5.778,9.7,9.8,15.482,13.535,6.418,4.148,13.151,8.355,17.2,15.05.491.811,1.721,0,1.231-.808-7.046-11.647-21.227-15.535-30.121-25.343-4.15-4.576-6.947-10.431-5.89-16.719.924-5.5,4.111-10.275,6.666-15.121a34.663,34.663,0,0,0,4.424-16.133,52.36,52.36,0,0,0-3.288-17.385,127.593,127.593,0,0,0-19.038-35.042,133.853,133.853,0,0,0-33.232-31.027c-.79-.518-1.44.8-.655,1.318Z" transform="translate(435.059 861.235)" fill="#fff"/>
    <path id="Path_1285" data-name="Path 1285" d="M946.219,518.856A19.732,19.732,0,0,0,955.377,495c-.317-.892-1.719-.442-1.4.452a18.272,18.272,0,0,1-8.564,22.172C944.578,518.076,945.39,519.3,946.219,518.856Z" transform="translate(444.291 867.415)" fill="#fff"/>
    <path id="Path_1286" data-name="Path 1286" d="M954.055,549.763A38.032,38.032,0,0,1,931.98,533c-.493-.809-1.724,0-1.231.808A39.56,39.56,0,0,0,953.755,551.2c.914.257,1.208-1.186.3-1.441Z" transform="translate(440.787 876.678)" fill="#fff"/>
    <path id="Path_1287" data-name="Path 1287" d="M928.59,485.733a11.17,11.17,0,0,1-10.363,2.221c-.91-.268-1.2,1.175-.3,1.441a12.516,12.516,0,0,0,11.47-2.431.761.761,0,0,0,.212-1.019.74.74,0,0,0-1.019-.211Z" transform="translate(437.568 865.252)" fill="#fff"/>
    <path id="Path_1288" data-name="Path 1288" d="M844.893,538.089c.563.184,1.127.367,1.694.562a147.083,147.083,0,0,1,21.968,9.315c.55.277,1.1.566,1.645.858a155.075,155.075,0,0,1,44.464,35.813,150.619,150.619,0,0,1,13.492,18.48c5.555,8.968,10.863,19.133,18.822,25.553a25.842,25.842,0,0,0,2.587,1.879l52.594-14.094c.1-.092.211-.172.315-.264l2.126-.467c-.184-.349-.383-.708-.567-1.057-.106-.2-.224-.4-.33-.606-.074-.134-.149-.269-.208-.394-.025-.045-.05-.089-.071-.122-.059-.126-.128-.236-.184-.349q-1.655-3.01-3.359-6.006c0-.012,0-.012-.018-.021A221.428,221.428,0,0,0,969.2,564.737c-.359-.38-.721-.771-1.1-1.145a143.677,143.677,0,0,0-17.535-15.57,127.082,127.082,0,0,0-10.677-7.158,105.639,105.639,0,0,0-30.66-12.284c-21.532-4.9-44.394-2.868-62.923,8.618C845.826,537.492,845.364,537.783,844.893,538.089Z" transform="translate(419.967 875.079)" fill="#f2f2f2"/>
    <path id="Path_1289" data-name="Path 1289" d="M845.3,536.594a131.521,131.521,0,0,1,78.465,19.78,56.634,56.634,0,0,1,13.582,11.421,32.485,32.485,0,0,1,6.9,15.64c.913,5.332,1.229,10.893,3.422,15.91a19.889,19.889,0,0,0,12.2,10.758c6.616,2.247,13.645,1.983,20.51,1.485,7.622-.552,15.53-1.246,22.795,1.66.88.352,1.375-1.034.5-1.386-12.638-5.058-26.3.376-39.308-2.1-6.069-1.155-11.827-4.147-14.769-9.8-2.573-4.946-2.9-10.68-3.781-16.087a34.66,34.66,0,0,0-6.18-15.544,52.355,52.355,0,0,0-13.093-11.9,127.6,127.6,0,0,0-36.3-16.517,133.853,133.853,0,0,0-45.214-4.765c-.943.062-.666,1.509.271,1.447Z" transform="translate(419.857 877.21)" fill="#fff"/>
    <path id="Path_1290" data-name="Path 1290" d="M904.026,552.834a19.732,19.732,0,0,0-7.05-24.56c-.79-.522-1.638.682-.847,1.2a18.272,18.272,0,0,1,6.511,22.859c-.395.861.993,1.353,1.385.5Z" transform="translate(432.332 875.58)" fill="#fff"/>
    <path id="Path_1291" data-name="Path 1291" d="M930.267,571.748a38.033,38.033,0,0,1-27.717-.092c-.881-.349-1.377,1.037-.5,1.386a39.56,39.56,0,0,0,28.842.038c.884-.345.25-1.674-.629-1.331Z" transform="translate(433.734 886.132)" fill="#fff"/>
    <path id="Path_1292" data-name="Path 1292" d="M871.122,537.233a11.169,11.169,0,0,1-6.937,8.013c-.888.334-.253,1.663.629,1.331a12.517,12.517,0,0,0,7.694-8.847.761.761,0,0,0-.445-.941.74.74,0,0,0-.941.445Z" transform="translate(424.547 877.669)" fill="#fff"/>
    <circle id="Ellipse_1538" data-name="Ellipse 1538" cx="12.374" cy="12.374" r="12.374" transform="translate(743.141 1127.862)" fill="#fb2b00"/>
    <circle id="Ellipse_1539" data-name="Ellipse 1539" cx="12.374" cy="12.374" r="12.374" transform="translate(1202.738 1282.935) rotate(-80.783)" fill="#e6e6e6"/>
    <circle id="Ellipse_1540" data-name="Ellipse 1540" cx="12.374" cy="12.374" r="12.374" transform="translate(742.639 988.614)" fill="#e6e6e6"/>
    <path id="Path_1293" data-name="Path 1293" d="M794.355,351.1h-3.532V254.345a56,56,0,0,0-56-56H529.838a56,56,0,0,0-56,56h0v530.8a56,56,0,0,0,56,56H734.825a56,56,0,0,0,56-56V419.971h3.532Z" transform="translate(329.865 795.496)" fill="#3f3d56"/>
    <path id="Path_1294" data-name="Path 1294" d="M775.882,251.886V781.91a41.812,41.812,0,0,1-41.811,41.816H528.088a41.814,41.814,0,0,1-41.816-41.814V251.886a41.814,41.814,0,0,1,41.814-41.816h25a19.866,19.866,0,0,0,18.392,27.372h117.44a19.875,19.875,0,0,0,18.391-27.372h26.757a41.814,41.814,0,0,1,41.816,41.814v0Z" transform="translate(332.883 798.343)" fill="#f2f2f2"/>
    <rect id="Rectangle_2502" data-name="Rectangle 2502" width="63.899" height="2.86" transform="translate(834.766 1059.008)" fill="#fff"/>
    <rect id="Rectangle_2503" data-name="Rectangle 2503" width="63.899" height="2.86" transform="translate(932.012 1059.008)" fill="#fff"/>
    <path id="Path_1295" data-name="Path 1295" d="M725.13,528.426h-208.3a5.344,5.344,0,0,1,0-10.689h208.3a5.344,5.344,0,0,1,0,10.689Z" transform="translate(339.008 873.053)" fill="#ccc"/>
    <path id="Path_1296" data-name="Path 1296" d="M725.13,558.344h-208.3a5.344,5.344,0,0,1,0-10.689h208.3a5.344,5.344,0,0,1,0,10.689Z" transform="translate(339.008 880.318)" fill="#ccc"/>
    <path id="Path_1297" data-name="Path 1297" d="M725.13,588.262h-208.3a5.344,5.344,0,0,1,0-10.689h208.3a5.344,5.344,0,0,1,0,10.689Z" transform="translate(339.008 887.583)" fill="#ccc"/>
    <rect id="Rectangle_2504" data-name="Rectangle 2504" width="63.899" height="2.86" transform="translate(1029.258 1059.008)" fill="#fff"/>
    <rect id="Rectangle_2505" data-name="Rectangle 2505" width="63.899" height="2.86" transform="translate(834.766 1572.414)" fill="#fff"/>
    <rect id="Rectangle_2506" data-name="Rectangle 2506" width="63.899" height="2.86" transform="translate(932.012 1572.414)" fill="#fff"/>
    <rect id="Rectangle_2507" data-name="Rectangle 2507" width="63.899" height="2.86" transform="translate(1029.258 1572.414)" fill="#fff"/>
    <circle id="Ellipse_1541" data-name="Ellipse 1541" cx="96.859" cy="96.859" r="96.859" transform="translate(867.102 1134.549)" fill="#d1d3d4"/>
    <path id="Path_1312" data-name="Path 1312" d="M88.365,0A88.365,88.365,0,1,1,0,88.365,88.365,88.365,0,0,1,88.365,0Z" transform="translate(876 1147)" fill="#060055"/>
    <rect id="Rectangle_2508" data-name="Rectangle 2508" width="11.441" height="61.494" transform="translate(797.762 1095.853)" fill="#3f3d56"/>
    <rect id="Rectangle_2509" data-name="Rectangle 2509" width="11.441" height="35.753" transform="translate(797.762 1164.497)" fill="#3f3d56"/>
    <rect id="Rectangle_2510" data-name="Rectangle 2510" width="11.441" height="35.753" transform="translate(797.762 1207.401)" fill="#3f3d56"/>
    <circle id="Ellipse_1543" data-name="Ellipse 1543" cx="5.72" cy="5.72" r="5.72" transform="translate(902.16 1011.477)" fill="#fff"/>
    <path id="Path_1299" data-name="Path 1299" d="M620.05,470.25a88.35,88.35,0,0,1-88.122-82.133c-.144,2.045-.243,4.115-.243,6.208a88.365,88.365,0,1,0,176.729,0c0-2.094-.1-4.163-.243-6.22A88.353,88.353,0,0,1,620.05,470.25Z" transform="translate(343.912 841.575)" fill="#231f20" opacity="0.16"/>
    <path id="Path_1300" data-name="Path 1300" d="M479.182,280.72l70.074,2.86,8.58-47.194L497.772,217.8Z" transform="translate(609.359 1026.284)" fill="#ffb8b8"/>
    <path id="Path_1301" data-name="Path 1301" d="M747.647,379.3l.678-22.3-33.962-8.514-61.146-17.839a12.765,12.765,0,1,0-6.813,15.6l59.444,24.435Z" transform="translate(367.379 825.493)" fill="#ffb8b8"/>
    <path id="Path_1302" data-name="Path 1302" d="M706.725,373.275l19.106-27.249.477.063c.3.04,30.261,4.048,49.9,9.9a15.7,15.7,0,0,1,10.167,8.453,16.468,16.468,0,0,1-2.29,17.909,17.614,17.614,0,0,1-18.1,6.015Z" transform="translate(386.416 831.357)" fill="#060055"/>
    <path id="Path_1303" data-name="Path 1303" d="M498.224,533.1H478.79l-9.245-74.959h28.682Z" transform="translate(607.02 1084.647)" fill="#ffb8b8"/>
    <path id="Path_1304" data-name="Path 1304" d="M622.1,526.171l-19.215,2.9-20.348-72.735,25.191-4.286Z" transform="translate(634.457 1083.168)" fill="#ffb8b8"/>
    <path id="Path_1305" data-name="Path 1305" d="M780.188,443.351l-67.215-11.441-2.391,4.928a228.249,228.249,0,0,0-22.366,84.776c-1.623,24.852-2.578,51.1-2.609,78.614-.049,42.63,2.127,82.186,5.565,118.18l36.89-.231A871.3,871.3,0,0,1,732.406,603.7c2.823-27.114,6.749-52.442,11.288-75.813a521.509,521.509,0,0,0,35.474,99.58c12.892,27.262,39.408,58.775,52.3,86.038l39.629-4.755c-10.41-27.53-28.981-67.732-39.392-95.262C816.82,574.12,810.1,547.43,795.211,508.068a121.329,121.329,0,0,0,.5-22.291c-.694-12.384-3.269-27.245-10.8-37.152Z" transform="translate(381.287 852.212)" fill="#2f2e41"/>
    <path id="Path_1306" data-name="Path 1306" d="M785.078,443.744c3.357,6.274-4.615,19.273-10.384,20.518l-66.468-21.486L741.694,345.8l16.839,3.06,26.93,4.537,9.552,8.683a16.794,16.794,0,0,1,4.632,17.726Z" transform="translate(386.781 831.301)" fill="#fb2b00"/>
    <path id="Path_1307" data-name="Path 1307" d="M753.9,396.794l-18.8-12-24.7,24.811-46.634,43.386a12.765,12.765,0,1,0,9.914,13.842L725.1,428.288Z" transform="translate(372.207 840.771)" fill="#ffb8b8"/>
    <path id="Path_1308" data-name="Path 1308" d="M726.784,423.775l-13.623-30.364.3-.377c.188-.237,18.973-23.92,34.055-37.8a15.7,15.7,0,0,1,12.467-4.4,16.477,16.477,0,0,1,14.21,11.138,17.613,17.613,0,0,1-4.1,18.629Z" transform="translate(387.979 832.507)" fill="#060055"/>
    <circle id="Ellipse_1544" data-name="Ellipse 1544" cx="29.562" cy="29.562" r="29.562" transform="translate(1127.57 1111.493)" fill="#ffb8b8"/>
    <path id="Path_1309" data-name="Path 1309" d="M789.511,366.8l-.113-.029-42.959-10.745a9.82,9.82,0,0,1-6.036-14.583l1.419-2.361a16.107,16.107,0,0,0,.659-15.385,16.957,16.957,0,0,0-9.75-8.328l-.142-.068-.9-.561a7.039,7.039,0,0,1-3.726-4.306,7.263,7.263,0,0,1,.711-5.857,35.542,35.542,0,0,1,16.237-14.314,36.655,36.655,0,0,1,26.942-.809,4.784,4.784,0,0,1,4.4-1.118c22.248,5.388,24.079,20.321,19.683,44.292l5.2,20.982a10.513,10.513,0,0,1-9.378,13.013Zm-17.9-77.109,0,0Zm.536-.131h0Z" transform="translate(391.494 817.091)" fill="#2f2e41"/>
    <path id="Path_1310" data-name="Path 1310" d="M730.857,723.583H719.766l-1.98-10.472-5.07,10.472H683.3a6.613,6.613,0,0,1-3.758-12.054l23.492-16.224V684.719l24.709,1.475Z" transform="translate(379.121 913.601)" fill="#2f2e41"/>
    <path id="Path_1311" data-name="Path 1311" d="M851.289,723.583H840.2l-1.98-10.472-5.07,10.472H803.731a6.613,6.613,0,0,1-3.758-12.054l23.491-16.224V684.719l24.709,1.475Z" transform="translate(408.365 913.601)" fill="#2f2e41"/>
    <g id="svgexport-6_-_2022-04-17T130342.862" data-name="svgexport-6 - 2022-04-17T130342.862" transform="translate(931.887 1203.527)">
      <g id="Group_68148" data-name="Group 68148" transform="translate(0 0.36)">
        <path id="Path_1313" data-name="Path 1313" d="M62.382,52.176,12.207,2A5.6,5.6,0,0,0,4.286,2L1.642,4.641a5.6,5.6,0,0,0,0,7.922L51.817,62.738a5.6,5.6,0,0,0,7.922,0l2.64-2.64a5.6,5.6,0,0,0,0-7.922Zm0,0" transform="translate(0 -0.36)" fill="#fff"/>
        <path id="Path_1314" data-name="Path 1314" d="M51.816,2,1.641,52.178a5.6,5.6,0,0,0,0,7.922l2.64,2.64a5.6,5.6,0,0,0,7.922,0L62.382,12.568a5.6,5.6,0,0,0,0-7.921l-2.64-2.64a5.6,5.6,0,0,0-7.925,0Zm0,0" transform="translate(0 -0.361)" fill="#fff"/>
      </g>
    </g>
  </g>
</svg>
