<svg xmlns="http://www.w3.org/2000/svg" width="78.623" height="15.219" viewBox="0 0 78.623 15.219">
  <g id="Group_67671" data-name="Group 67671" transform="translate(-1101 -1227)">
    <path id="Path_13" data-name="Path 13" d="M509.013,319.032c-.222-8.413.177-8.856,8.428-8.472q32.3,1.269,64.62,2.465V314.5c-6.569.355-13.122.8-19.69,1.063q-23.617.93-47.351,1.682c-2.952.089-1.683.841-.516,1.83a3.661,3.661,0,0,1-5.491-.044Z" transform="translate(594.197 916.533)" fill="#fb2b00"/>
    <path id="Path_14" data-name="Path 14" d="M509.713,316.27h5.535l8.133.28c5.3,1.329,10.76-.236,16.074.9a379.616,379.616,0,0,1,46.672,2.405q-36.9,1.476-73.8,2.79c-1.476,0-3.705.945-4.428-.649A4.516,4.516,0,0,1,509.713,316.27Z" transform="translate(593.497 919.295)" fill="#fb2b00"/>
  </g>
</svg>
