<svg xmlns="http://www.w3.org/2000/svg" width="131.572" height="108.418" viewBox="0 0 131.572 108.418">
  <g id="Group_67645" data-name="Group 67645" transform="translate(-1719.612 -27.139)">
    <g id="Group_675" data-name="Group 675" transform="translate(1736.184 27.139)">
      <g id="Group_3" data-name="Group 3">
        <path id="Path_1" data-name="Path 1" d="M277.146,169.815c-2.423.659-3.387-.616-4.421-2.676-6.922-13.548-17.96-21.553-33.093-23.474a42.214,42.214,0,0,0-44.03,25.189,1.315,1.315,0,0,1-1.469.976c-1.709-.077-3.658.443-5.068-.219s-2.3-2.463-3.387-3.769c-1.921-2.309-1.909-2.312-.4-4.9,1.385-2.383,2.771-4.766,4.123-7.174a1.1,1.1,0,0,1,1.395-.65c2.051.4,4.12.7,6.176,1.072a1.878,1.878,0,0,0,1.967-.674,40.367,40.367,0,0,1,3.359-3.35,1.78,1.78,0,0,0,.656-1.847c-.379-2.054-.665-4.126-1.068-6.176a1.184,1.184,0,0,1,.665-1.5q4.483-2.509,8.9-5.139a1.174,1.174,0,0,1,1.638.172c1.586,1.358,3.239,2.642,4.813,4a1.734,1.734,0,0,0,1.924.342,36.772,36.772,0,0,1,4.594-1.232,1.87,1.87,0,0,0,1.61-1.456c.65-1.9,1.407-3.759,2.06-5.653a1.281,1.281,0,0,1,1.447-1.01c3.387.046,6.774.04,10.161,0a1.227,1.227,0,0,1,1.373.924c.705,2.014,1.484,4,2.2,6a1.539,1.539,0,0,0,1.3,1.13c1.672.36,3.322.825,4.957,1.333a1.567,1.567,0,0,0,1.7-.351c1.613-1.392,3.291-2.71,4.926-4.092a1.129,1.129,0,0,1,1.539-.182q4.471,2.66,9.009,5.2a1.109,1.109,0,0,1,.64,1.4c-.41,2.091-.711,4.2-1.09,6.3a1.7,1.7,0,0,0,.616,1.755,46.291,46.291,0,0,1,3.427,3.461,1.776,1.776,0,0,0,1.847.647c2.054-.376,4.126-.665,6.173-1.068a1.176,1.176,0,0,1,1.5.671q2.519,4.483,5.148,8.9a1.19,1.19,0,0,1-.185,1.641c-1.232,1.423-2.463,2.854-3.581,4.36a4.478,4.478,0,0,1-2.429,1.124S277.691,169.815,277.146,169.815Z" transform="translate(-184.188 -130.669)" fill="#fb2b00"/>
        <path id="Path_2" data-name="Path 2" d="M262.949,220.535a34,34,0,0,1-8.929-1c-3.861-.874-7.648-2.081-11.62-2.463a17.416,17.416,0,0,0-11.934,3.208l-.945.656a11.084,11.084,0,0,1,2.919-6.506c.973-1.084,2.078-2.051,3.116-3.079a4.154,4.154,0,0,0,1.4-2.171c.086-.508.44-.637.837-.794,6.755-2.648,13.661-4.649,20.971-4.9a26.71,26.71,0,0,1,16.094,4.591c3.011,2.02,5.918,4.175,8.812,6.377a1.383,1.383,0,0,1,.212.329l-10.444,1.207-.055-.163a17.431,17.431,0,0,0,1.733-1.038c.841-.64.951-1.512.148-2.112-7.7-5.767-15.041-8.042-23.462-3.763-1.466.745-1.478.819-.129,1.783,2.355,1.687,5.1,2.417,7.836,3.184.4.114.807.2,1.447.363a9.979,9.979,0,0,1-5.564.779,57.574,57.574,0,0,1-7.3-1.749c-2.562-.659-5.133-1.17-7.775-.425a1.5,1.5,0,0,0-1.016.52c4.926-.185,9.271,1.626,13.634,3.4A77.963,77.963,0,0,0,262.949,220.535Z" transform="translate(-215.562 -181.046)" fill="#060055"/>
        <path id="Path_3" data-name="Path 3" d="M371.279,249.416c-5.979-3.1-12.353-2.392-18.662-2.054-5.207.28-10.4.874-15.623.36a17.251,17.251,0,0,1-7.922-2.494,5.261,5.261,0,0,1-1.712-1.54,27.984,27.984,0,0,0,7.239,1.262c5.031.185,9.988-.585,14.967-1.1,4.311-.447,8.64-.939,12.969-.111A12.29,12.29,0,0,1,371.279,249.416Z" transform="translate(-283.277 -208.619)" fill="#fb2b00"/>
      </g>
      <g id="Group_2" data-name="Group 2" transform="translate(0 74.812)">
        <path id="Path_4" data-name="Path 4" d="M190.549,373.683c1.847,0,3.695.062,5.518-.028a1.857,1.857,0,0,1,1.884,1.028,41.919,41.919,0,0,0,25.571,18.628,42.466,42.466,0,0,0,46.213-18.243,2.566,2.566,0,0,1,2.556-1.422c3.676.1,7.356.031,11.035.04,1.432,0,1.635.372.924,1.617-1.687,2.931-3.387,5.85-5.046,8.8a1.132,1.132,0,0,1-1.459.7c-2.081-.434-4.2-.714-6.29-1.1a1.66,1.66,0,0,0-1.737.616,33.033,33.033,0,0,1-3.362,3.365,1.987,1.987,0,0,0-.705,2.177c.382,2.051.674,4.12,1.081,6.158a.951.951,0,0,1-.557,1.192c-3.079,1.755-6.158,3.516-9.215,5.314a.959.959,0,0,1-1.309-.126c-1.687-1.435-3.43-2.805-5.108-4.252a1.429,1.429,0,0,0-1.561-.326c-1.672.52-3.359,1.007-5.071,1.37a1.5,1.5,0,0,0-1.265,1.142c-.721,2.048-1.54,4.064-2.248,6.109a1.03,1.03,0,0,1-1.173.81c-3.47-.034-6.94-.049-10.41,0a1.193,1.193,0,0,1-1.318-.973c-.724-2.044-1.521-4.064-2.241-6.109a1.284,1.284,0,0,0-1.13-.964,31.885,31.885,0,0,1-5.188-1.4,1.281,1.281,0,0,0-1.459.274c-1.678,1.444-3.421,2.814-5.1,4.252a1.024,1.024,0,0,1-1.413.163q-4.517-2.679-9.1-5.256a1.1,1.1,0,0,1-.616-1.395c.416-2.088.708-4.2,1.087-6.294a1.663,1.663,0,0,0-.594-1.74,39.336,39.336,0,0,1-3.452-3.445,1.833,1.833,0,0,0-1.961-.641c-2.094.385-4.2.69-6.29,1.1a.938.938,0,0,1-1.192-.545c-1.752-3.079-3.538-6.158-5.3-9.237-.52-.924-.246-1.358.859-1.367C186.451,373.668,188.5,373.683,190.549,373.683Z" transform="translate(-183.284 -373.645)" fill="#060055"/>
        <path id="Path_5" data-name="Path 5" d="M317,383.16c.884-.594,2.325,1.592,2.839-.52.437-1.8-1.5-1.081-2.091-1.826a2.246,2.246,0,0,1,3.8.548,6.63,6.63,0,0,0,2.851,2.682c1.82,1.013,3.639,2.032,5.422,3.113a5.894,5.894,0,0,0,3.812,1.182c1.216-.126,2.1.616,2.531,2-.616-.166-1.142-.286-1.644-.44-.634-.191-1.139-.194-1.327.616-.175.751-.1,1.309.794,1.493.486.1.958.277,1.45.425-1.539,1.349-3.153,1.121-4.135-.687a5.425,5.425,0,0,0-2.269-2.223c-2.331-1.293-4.634-2.639-6.928-4a3.159,3.159,0,0,0-2.106-.5A2.482,2.482,0,0,1,317,383.16Z" transform="translate(-275.829 -378.042)" fill="#060055"/>
      </g>
    </g>
    <path id="Path_6" data-name="Path 6" d="M316.93,406.326a2.48,2.48,0,0,1,2.944-1.764,2.886,2.886,0,0,0,2.217-.554,1.747,1.747,0,0,1,2.525,0,8.761,8.761,0,0,0,1.161.705c-.616.36-1.136.69-1.681.97a5.542,5.542,0,0,0-2.463,2.368c-.924,1.733-2.463,1.94-4.049.72.665-.742,2.86-.031,2.134-2.029C319.107,405.015,317.875,406.933,316.93,406.326Z" transform="translate(1459.176 -292.367)" fill="#060055"/>
    <path id="Path_7" data-name="Path 7" d="M350.11,384.949c.825-.483,1.481-.924,2.18-1.269a4.328,4.328,0,0,0,1.891-1.918c1-1.832,2.352-2.125,4.12-.924-.616.81-2.891.108-2.131,2.106.637,1.675,1.847-.179,2.749.28a2.429,2.429,0,0,1-2.959,1.884,2.635,2.635,0,0,0-2.1.5,1.827,1.827,0,0,1-2.633.015A9.006,9.006,0,0,0,350.11,384.949Z" transform="translate(1436.212 -276.206)" fill="#060055"/>
    <g id="Group_7" data-name="Group 7" transform="translate(1719.612 83.537)">
      <g id="Group_6" data-name="Group 6">
        <g id="Group_5" data-name="Group 5">
          <path id="Path_8" data-name="Path 8" d="M140.746,311.552l-6.226-.308v-.139c5.265-.209,10.533-.409,15.8-.64.924-.04.773.477.674,1.028a.616.616,0,0,1-.477.523c-1.586.126-3.19.456-4.742-.206l-.117-.025h-.12C143.951,311.453,142.331,311.86,140.746,311.552Z" transform="translate(-134.191 -310.463)" fill="#fb2b00"/>
          <path id="Path_9" data-name="Path 9" d="M143.811,315.776l1.232-.022c1.438-.533,2.919-.222,4.381-.2.533,0,.585.483.394.939-.108.5-.4.588-.924.567-5.148-.222-10.3-.406-15.444-.77l7.045-.345C141.6,315.723,142.721,316.028,143.811,315.776Z" transform="translate(-133.45 -313.911)" fill="#fb2b00"/>
        </g>
        <path id="Path_10" data-name="Path 10" d="M175.855,315.33c.1-.671-.237-.831-.844-.81-1.312.049-2.623.049-3.932.068v-.511q1.986,0,3.975.025c.45,0,.924.114,1.247-.342A3.308,3.308,0,0,1,175.855,315.33Z" transform="translate(-159.494 -312.745)" fill="#fb2b00"/>
        <path id="Path_11" data-name="Path 11" d="M154.74,313.939a21.852,21.852,0,0,1,4.788.219A16.762,16.762,0,0,1,154.74,313.939Z" transform="translate(-148.185 -312.85)" fill="#fb2b00"/>
        <path id="Path_12" data-name="Path 12" d="M159.667,316.344a10.28,10.28,0,0,1-3.307.172A8.432,8.432,0,0,1,159.667,316.344Z" transform="translate(-149.306 -314.479)" fill="#fb2b00"/>
      </g>
      <g id="Group_4" data-name="Group 4" transform="translate(115.171 0.001)">
        <path id="Path_13" data-name="Path 13" d="M508.981,312.254c-.046-1.755.037-1.847,1.758-1.767q6.737.265,13.48.514v.308c-1.37.074-2.737.166-4.107.222q-4.926.194-9.878.351c-.616.018-.351.176-.108.382a.764.764,0,0,1-1.145-.009Z" transform="translate(-508.52 -310.467)" fill="#fb2b00"/>
        <path id="Path_14" data-name="Path 14" d="M507.964,316.27h1.155l1.7.059c1.105.277,2.245-.049,3.353.188a79.195,79.195,0,0,1,9.736.5q-7.7.308-15.4.582c-.308,0-.773.2-.924-.135A.942.942,0,0,1,507.964,316.27Z" transform="translate(-507.503 -314.483)" fill="#fb2b00"/>
      </g>
    </g>
    <path id="Path_15" data-name="Path 15" d="M521.593,316.567a8.55,8.55,0,0,1-3.353-.188A10.313,10.313,0,0,1,521.593,316.567Z" transform="translate(1319.849 -232.061)" fill="#fb2b00"/>
    <text id="Al-Jarallah" transform="translate(1745.184 90.713)" fill="#fb2b00" font-size="18" font-family="El Messiri" font-weight="700"><tspan x="0" y="0">Al-Jarallah</tspan></text>
  </g>
</svg>
