<svg xmlns="http://www.w3.org/2000/svg" width="26.346" height="26.346" viewBox="0 0 26.346 26.346">
  <g id="svgexport-7_39_" data-name="svgexport-7 (39)" transform="translate(0)" opacity="0.5">
    <g id="XMLID_468_" transform="translate(0)">
      <path id="XMLID_469_" d="M93.465,87.974c-.051-.025-1.972-.97-2.313-1.093a1.329,1.329,0,0,0-.447-.1.761.761,0,0,0-.647.383c-.192.285-.773.964-.952,1.167-.023.027-.055.059-.075.059s-.314-.122-.4-.161a10.107,10.107,0,0,1-3.839-3.41.212.212,0,0,1-.032-.076.619.619,0,0,1,.113-.133c.1-.1.218-.24.328-.372.052-.063.1-.125.155-.184a2.069,2.069,0,0,0,.312-.5l.043-.086a.9.9,0,0,0-.026-.843c-.045-.091-.856-2.048-.943-2.254-.207-.5-.481-.727-.862-.727-.035,0,0,0-.148.006a4.6,4.6,0,0,0-1.6.411,3.343,3.343,0,0,0-1.24,2.844,6.13,6.13,0,0,0,1.329,3.375c.01.013.028.04.055.079a12.512,12.512,0,0,0,5.367,4.659,8.728,8.728,0,0,0,3.242.829h0a5.068,5.068,0,0,0,.527-.031l.094-.009a3.407,3.407,0,0,0,2.376-1.681,2.658,2.658,0,0,0,.151-1.75A1.212,1.212,0,0,0,93.465,87.974Z" transform="translate(-73.971 -72.835)" fill="#fb2b00"/>
      <path id="XMLID_470_" d="M13.407,0A12.907,12.907,0,0,0,.467,12.843a12.749,12.749,0,0,0,1.774,6.495L.018,25.894a.342.342,0,0,0,.428.436l6.836-2.172A12.961,12.961,0,0,0,26.346,12.843,12.906,12.906,0,0,0,13.407,0Zm0,23.009a10.251,10.251,0,0,1-5.64-1.681.342.342,0,0,0-.291-.04L4.051,22.377l1.106-3.262a.342.342,0,0,0-.048-.312,10.028,10.028,0,0,1-1.951-5.96,10.249,10.249,0,1,1,10.25,10.166Z" transform="translate(0)" fill="#fb2b00"/>
    </g>
  </g>
</svg>
