<svg xmlns="http://www.w3.org/2000/svg" version="1.1" xmlns:xlink="http://www.w3.org/1999/xlink" xmlns:svgjs="http://svgjs.com/svgjs" width="512" height="512" x="0" y="0" viewBox="0 0 64 64" style="enable-background:new 0 0 512 512" xml:space="preserve"><g><g xmlns="http://www.w3.org/2000/svg" id="outline"><path d="M55.89,21.22l1.92-2.63a1,1,0,0,0-1.62-1.18l-1.76,2.43a8.95,8.95,0,1,0,1.46,1.38ZM49,34a7,7,0,1,1,4.25-12.55l-4.46,6.14L45.6,25.2a1,1,0,0,0-1.2,1.6l4,3a1,1,0,0,0,.6.2h.15a1,1,0,0,0,.66-.4l4.86-6.68A7,7,0,0,1,49,34Z" fill="#000000" data-original="#000000"></path><path d="M56.34,42.36a1,1,0,0,0-.75-.45,24.23,24.23,0,0,1-7.09-1.67V39a1,1,0,0,0-1-1h0a1,1,0,0,0-1,1v.35c-1-.51-2-1.05-2.94-1.58-5.15-2.88-9.6-5.37-20.62-.88a1,1,0,0,0-.59,1.18c.85,3.41,3.46,3.44,5.84,3-1.92,1.57-4.82,2.22-8.65,1.93a1,1,0,0,0-1.08.84,3.26,3.26,0,0,0,0,.62H13.5v-31H25v7a1,1,0,0,0,1,1h8a1,1,0,0,0,1-1v-7H46.5v2a1,1,0,0,0,1,1h0a1,1,0,0,0,1-1v-3a1,1,0,0,0-1-1h-35a1,1,0,0,0-1,1v33a1,1,0,0,0,1,1H19a3.25,3.25,0,0,0,.6.74,6.48,6.48,0,0,0,5.26,1.44c3.52,2.53,5.88,5.14,9.94,6,2.32,0,6.41-2.67,8.45-4.11l5.53,1.65a1,1,0,0,0,.83-.1,22.46,22.46,0,0,0,6.8-8.79A1,1,0,0,0,56.34,42.36ZM27,13.43h6v6H27ZM48.92,50.07,43.4,48.4a1.35,1.35,0,0,0-.29,0,1,1,0,0,0-.58.19c-3.31,2.38-6.43,4-7.66,4A16.15,16.15,0,0,1,28.72,49c-.93-.74-1.88-1.5-3-2.28a1,1,0,0,0-.72-.15,5.94,5.94,0,0,1-2.72-.15A3,3,0,0,1,21,45.72a2,2,0,0,1-.48-.69,15.62,15.62,0,0,0,3.71-.25,10.17,10.17,0,0,0,7.15-4.45,7.36,7.36,0,0,1,2.3-.16,1,1,0,0,0,.24-2,13.75,13.75,0,0,0-4.73.58c-2.73.66-4,.82-4.64-.37,9.47-3.65,13.25-1.53,18,1.13,1.21.68,2.49,1.39,3.92,2,.63.3,1.29.57,2,.84A27.35,27.35,0,0,0,54,43.76,23.18,23.18,0,0,1,48.92,50.07Z" fill="#000000" data-original="#000000"></path></g></g></svg>