<svg xmlns="http://www.w3.org/2000/svg" width="75.365" height="76.276" viewBox="0 0 75.365 76.276">
  <g id="svgexport-6_67_" data-name="svgexport-6 (67)" transform="translate(-30 -27.375)">
    <path id="Path_14752" data-name="Path 14752" d="M173.2,182h25a1,1,0,0,0,0-2h-25a1,1,0,1,0,0,2Z" transform="translate(-118.499 -127.186)" fill="#2d2d2d"/>
    <path id="Path_14753" data-name="Path 14753" d="M93.464,183.5l-2.222,2.124-.9-.9a1,1,0,1,0-1.414,1.414l1.593,1.593a1,1,0,0,0,1.4.016l2.929-2.8a1,1,0,1,0-1.382-1.446Z" transform="translate(-48.861 -129.874)" fill="#2d2d2d"/>
    <path id="Path_14754" data-name="Path 14754" d="M74.265,156.9a6.787,6.787,0,1,0,6.787,6.787A6.787,6.787,0,0,0,74.265,156.9Zm0,11.575a4.787,4.787,0,1,1,4.787-4.787,4.787,4.787,0,0,1-4.787,4.787Z" transform="translate(-31.231 -107.936)" fill="#2d2d2d"/>
    <path id="Path_14755" data-name="Path 14755" d="M173.2,282h25a1,1,0,0,0,0-2h-25a1,1,0,1,0,0,2Z" transform="translate(-118.499 -210.518)" fill="#2d2d2d"/>
    <path id="Path_14756" data-name="Path 14756" d="M93.464,283.5l-2.222,2.124-.9-.9a1,1,0,1,0-1.414,1.414l1.593,1.593a1,1,0,0,0,1.4.016l2.929-2.8a1,1,0,1,0-1.382-1.446Z" transform="translate(-48.861 -213.206)" fill="#2d2d2d"/>
    <path id="Path_14757" data-name="Path 14757" d="M74.265,256.9a6.787,6.787,0,1,0,6.787,6.787A6.787,6.787,0,0,0,74.265,256.9Zm0,11.575a4.787,4.787,0,1,1,4.787-4.787,4.787,4.787,0,0,1-4.787,4.787Z" transform="translate(-31.231 -191.268)" fill="#2d2d2d"/>
    <path id="Path_14758" data-name="Path 14758" d="M93.464,383.5l-2.222,2.124-.9-.9a1,1,0,1,0-1.414,1.414l1.593,1.593a1,1,0,0,0,1.4.016l2.929-2.8a1,1,0,1,0-1.382-1.446Z" transform="translate(-48.861 -296.538)" fill="#2d2d2d"/>
    <path id="Path_14759" data-name="Path 14759" d="M74.265,356.9a6.787,6.787,0,1,0,6.787,6.787A6.787,6.787,0,0,0,74.265,356.9Zm0,11.575a4.787,4.787,0,1,1,4.787-4.787,4.787,4.787,0,0,1-4.787,4.787Z" transform="translate(-31.231 -274.601)" fill="#2d2d2d"/>
    <path id="Path_14760" data-name="Path 14760" d="M173.2,202h13.334a1,1,0,1,0,0-2H173.2a1,1,0,1,0,0,2Z" transform="translate(-118.499 -143.852)" fill="#2d2d2d"/>
    <path id="Path_14761" data-name="Path 14761" d="M173.2,302h13.334a1,1,0,1,0,0-2H173.2a1,1,0,1,0,0,2Z" transform="translate(-118.499 -227.185)" fill="#2d2d2d"/>
    <path id="Path_14762" data-name="Path 14762" d="M54,94.1a1,1,0,0,0-1,1v1.05a1,1,0,0,0,2,0V95.1a1,1,0,0,0-1-1Z" transform="translate(-19.166 -55.603)" fill="#2d2d2d"/>
    <path id="Path_14763" data-name="Path 14763" d="M54,119.391a1,1,0,0,0-1,1v9.667a1,1,0,1,0,2,0v-9.667A1,1,0,0,0,54,119.391Z" transform="translate(-19.166 -76.679)" fill="#2d2d2d"/>
    <path id="Path_14764" data-name="Path 14764" d="M101.216,67.432a5.17,5.17,0,0,0-3.912.747L87,74.943V37.417a5.978,5.978,0,0,0-6.028-5.938H74.67v-3.1a1,1,0,0,0-2,0v3.1h-8.5v-3.1a1,1,0,0,0-2,0v3.1H53.835v-3.1a1,1,0,1,0-2,0v3.1h-8.5v-3.1a1,1,0,0,0-2,0v3.1H35.973A5.931,5.931,0,0,0,30,37.417V97.588a6.038,6.038,0,0,0,5.973,6.063h45A6.084,6.084,0,0,0,87,97.588V87.393l16.015-10.517a5.2,5.2,0,0,0-1.8-9.444Zm-27.6-29.69a1.768,1.768,0,1,1-1.768,1.768A1.768,1.768,0,0,1,73.613,37.742Zm-10.421,0a1.768,1.768,0,1,1-1.769,1.769A1.768,1.768,0,0,1,63.192,37.742Zm-10.422,0A1.768,1.768,0,1,1,51,39.511,1.768,1.768,0,0,1,52.77,37.742Zm-10.421,0a1.768,1.768,0,1,1-1.769,1.769A1.768,1.768,0,0,1,42.349,37.742ZM85,97.588a4.082,4.082,0,0,1-4.028,4.063h-45A4.035,4.035,0,0,1,32,97.588V37.417a3.929,3.929,0,0,1,3.973-3.938h5.361v2.4a3.881,3.881,0,0,0-2.761,3.634,3.768,3.768,0,0,0,7.535,0,3.7,3.7,0,0,0-2.774-3.634v-2.4h8.5v2.4a3.721,3.721,0,0,0-2.8,3.634,3.773,3.773,0,1,0,7.545,0,3.867,3.867,0,0,0-2.745-3.634v-2.4h8.334v2.4a3.878,3.878,0,0,0-2.757,3.634,3.767,3.767,0,0,0,7.534,0,3.7,3.7,0,0,0-2.777-3.634v-2.4h8.5v2.4a3.717,3.717,0,0,0-2.8,3.634,3.772,3.772,0,1,0,7.544,0,3.87,3.87,0,0,0-2.747-3.634v-2.4h6.306A3.975,3.975,0,0,1,85,37.417V76.257l-3.756,2.467a1,1,0,0,0-.24,1.45h0a1,1,0,0,0,1.338.221l14.871-9.765,1.21,1.841L73.231,89.016l-1.21-1.841,4.734-3.108a1,1,0,1,0-1.1-1.672L70.091,86.05l-.03.023c-.025.018-.05.036-.074.056l-.022.021H54.7a1,1,0,0,0,0,2H68.837l-.708,1.338c-.031,0-.062,0-.094,0H54.7a1,1,0,0,0,0,2H67.073l-1.156,2.184a1,1,0,0,0,.883,1.468h.026l8.452-.222c.02,0,.041,0,.061-.006s.044,0,.065-.006.052-.011.078-.017.038-.008.057-.013a.993.993,0,0,0,.128-.048.308.308,0,0,0,.03-.017,1,1,0,0,0,.094-.052l.01-.005L85,88.707ZM73.43,92.961l-4.945.13,2.244-4.24Zm2.109-.432-.077-.117-1.133-1.724L99.523,74.143l1.21,1.841Zm26.837-17.688-3.46-5.265a3.227,3.227,0,0,1,2.679.081,2.863,2.863,0,0,1,.662.442,3.213,3.213,0,0,1,.118,4.743Z" transform="translate(0)" fill="#2d2d2d"/>
  </g>
</svg>
