<svg xmlns="http://www.w3.org/2000/svg" width="27.218" height="27.223" viewBox="0 0 27.218 27.223">
  <g id="svgexport-6_-_2022-03-28T143234.938" data-name="svgexport-6 - 2022-03-28T143234.938" transform="translate(-0.449 0)" opacity="0.5">
    <path id="Path_1027" data-name="Path 1027" d="M27.6,8a9.947,9.947,0,0,0-.633-3.3A6.974,6.974,0,0,0,22.981.718a9.973,9.973,0,0,0-3.3-.633C18.221.016,17.759,0,14.063,0S9.9.016,8.452.08a9.95,9.95,0,0,0-3.3.633A6.642,6.642,0,0,0,2.735,2.287,6.7,6.7,0,0,0,1.166,4.7,9.974,9.974,0,0,0,.534,8C.465,9.456.449,9.918.449,13.614s.016,4.159.08,5.611a9.947,9.947,0,0,0,.633,3.3,6.972,6.972,0,0,0,3.983,3.983,9.974,9.974,0,0,0,3.3.633c1.452.064,1.915.08,5.611.08s4.159-.016,5.611-.08a9.945,9.945,0,0,0,3.3-.633,6.963,6.963,0,0,0,3.983-3.983,9.981,9.981,0,0,0,.633-3.3c.064-1.452.08-1.915.08-5.611S27.661,9.456,27.6,8ZM25.146,19.118a7.462,7.462,0,0,1-.468,2.526,4.516,4.516,0,0,1-2.585,2.585,7.488,7.488,0,0,1-2.526.468c-1.436.064-1.867.08-5.5.08s-4.068-.016-5.5-.08a7.458,7.458,0,0,1-2.526-.468A4.189,4.189,0,0,1,4.48,23.213,4.232,4.232,0,0,1,3.464,21.65,7.489,7.489,0,0,1,3,19.124c-.064-1.436-.08-1.867-.08-5.5s.016-4.068.08-5.5A7.458,7.458,0,0,1,3.464,5.6,4.138,4.138,0,0,1,4.485,4.036,4.226,4.226,0,0,1,6.049,3.021a7.493,7.493,0,0,1,2.526-.468c1.436-.064,1.867-.08,5.5-.08s4.068.016,5.5.08a7.462,7.462,0,0,1,2.526.468,4.186,4.186,0,0,1,1.563,1.016A4.232,4.232,0,0,1,24.678,5.6a7.492,7.492,0,0,1,.468,2.526c.064,1.436.08,1.867.08,5.5s-.016,4.058-.08,5.494Zm0,0" transform="translate(0 0)" fill="#fb2b00"/>
    <path id="Path_1028" data-name="Path 1028" d="M131.942,124.5a6.993,6.993,0,1,0,6.993,6.993A7,7,0,0,0,131.942,124.5Zm0,11.53a4.536,4.536,0,1,1,4.536-4.536A4.537,4.537,0,0,1,131.942,136.03Zm0,0" transform="translate(-117.879 -117.879)" fill="#fb2b00"/>
    <path id="Path_1029" data-name="Path 1029" d="M365.715,90.234a1.633,1.633,0,1,1-1.633-1.633A1.633,1.633,0,0,1,365.715,90.234Zm0,0" transform="translate(-342.75 -83.89)" fill="#fb2b00"/>
  </g>
</svg>
