<svg xmlns="http://www.w3.org/2000/svg" width="48.83" height="40.342" viewBox="0 0 48.83 40.342">
  <g id="svgexport-6_41_" data-name="svgexport-6 (41)" transform="translate(545.405 -136.111)">
    <g id="Group_470" data-name="Group 470" transform="translate(-545.405 136.111)">
      <path id="Path_481" data-name="Path 481" d="M334.048,344.959l10.716-10.7a2.34,2.34,0,0,0,0-3.3L343,329.193a2.343,2.343,0,0,0-3.3,0l-.048.045-10.623,10.611-.045.048a2.337,2.337,0,0,0,0,3.3l1.767,1.765a2.325,2.325,0,0,0,.6.436h2.093A2.372,2.372,0,0,0,334.048,344.959Z" transform="translate(-296.616 -305.053)" fill="#fb2b00" fill-rule="evenodd"/>
      <path id="Path_482" data-name="Path 482" d="M287.273,295.529l10.623-10.61-4.648-4.642c-6.96-3.942-12.6,5.095-11.045,10.189Z" transform="translate(-254.866 -260.734)" fill="#ffdcd5" fill-rule="evenodd"/>
      <path id="Path_483" data-name="Path 483" d="M21.183,345.4h2.093a2.372,2.372,0,0,0,.6-.436l1.767-1.765a2.337,2.337,0,0,0,0-3.3l-.048-.048-10.623-10.61-.045-.045a2.347,2.347,0,0,0-3.306,0l-1.764,1.762a2.34,2.34,0,0,0,0,3.3l10.713,10.7A2.389,2.389,0,0,0,21.183,345.4Z" transform="translate(-9.181 -305.054)" fill="#060055" fill-rule="evenodd"/>
      <path id="Path_484" data-name="Path 484" d="M90.827,133.566l6.561-6.55,2.763-2.759.869-.868a2.467,2.467,0,1,0-3.491-3.487l.875-.877a2.467,2.467,0,0,0-3.491-3.487l.875-.877a2.467,2.467,0,0,0-3.491-3.487l.878-.874a2.464,2.464,0,0,0-2.144-4.176,2.447,2.447,0,0,0-1.35.686l-3.5,3.5.112.112.02.02a2.467,2.467,0,1,1-3.491,3.487,2.469,2.469,0,1,1-3.494,3.49,2.467,2.467,0,1,1-3.491,3.487,2.467,2.467,0,1,1-3.491,3.487l-.132-.132-4.65,4.642,10.623,10.61,4.439-4.434c1.258-1.3,4.2-.163,6.479-.629A3.292,3.292,0,0,0,90.827,133.566Z" transform="translate(-61.767 -104.714)" fill="#ffd0c7" fill-rule="evenodd"/>
      <path id="Path_485" data-name="Path 485" d="M173.827,105.971a2.467,2.467,0,1,0,3.491-3.487l-.02-.02c-1.483-.107-4.318-2.678-4.487-4.482a2.468,2.468,0,0,0-3.494,3.487l.878.877Z" transform="translate(-152.771 -96.76)" fill="#ffdcd5" fill-rule="evenodd"/>
      <path id="Path_486" data-name="Path 486" d="M146.6,149.053a2.469,2.469,0,0,0,3.494-3.49l-3.632-3.625a2.467,2.467,0,1,0-3.491,3.487l.875.874Z" transform="translate(-129.039 -136.353)" fill="#ffdcd5" fill-rule="evenodd"/>
      <path id="Path_487" data-name="Path 487" d="M119.372,192.126a2.467,2.467,0,1,0,3.491-3.487l-2.754-2.754a2.468,2.468,0,0,0-3.491,3.49l1.753,1.751Z" transform="translate(-105.301 -175.939)" fill="#ffdcd5" fill-rule="evenodd"/>
      <path id="Path_488" data-name="Path 488" d="M100.1,243.14a2.467,2.467,0,1,0,3.491-3.487l-1-1a2.468,2.468,0,0,0-3.494,3.487l.872.868Z" transform="translate(-89.52 -223.466)" fill="#ffdcd5" fill-rule="evenodd"/>
      <path id="Path_489" data-name="Path 489" d="M215.333,97.806l3.5-3.5a2.447,2.447,0,0,1,1.35-.686l-6.755-1.279c-1.333-.253-2.6-.261-2.467,1.09.169,1.8,3,4.375,4.487,4.482Z" transform="translate(-190.918 -92.215)" fill="#ffdcd5" fill-rule="evenodd"/>
    </g>
  </g>
</svg>
