<svg xmlns="http://www.w3.org/2000/svg" width="25.538" height="20.75" viewBox="0 0 25.538 20.75">
  <g id="svgexport-6_75_" data-name="svgexport-6 (75)" transform="translate(0 -48)" opacity="0.5">
    <g id="Group_2122" data-name="Group 2122" transform="translate(0 48)">
      <g id="Group_2121" data-name="Group 2121">
        <path id="Path_717" data-name="Path 717" d="M25.538,50.456a10.916,10.916,0,0,1-3.017.827,5.206,5.206,0,0,0,2.3-2.894,10.463,10.463,0,0,1-3.32,1.267,5.235,5.235,0,0,0-9.057,3.58,5.391,5.391,0,0,0,.121,1.194A14.819,14.819,0,0,1,1.778,48.954a5.237,5.237,0,0,0,1.609,7,5.171,5.171,0,0,1-2.365-.645v.057a5.26,5.26,0,0,0,4.195,5.144,5.225,5.225,0,0,1-1.373.172,4.629,4.629,0,0,1-.991-.089,5.285,5.285,0,0,0,4.892,3.647,10.52,10.52,0,0,1-6.492,2.233A9.806,9.806,0,0,1,0,66.4a14.74,14.74,0,0,0,8.032,2.35,14.8,14.8,0,0,0,14.9-14.9c0-.231-.008-.455-.019-.677A10.445,10.445,0,0,0,25.538,50.456Z" transform="translate(0 -48)" fill="#fb2b00"/>
      </g>
    </g>
  </g>
</svg>
