<svg id="svgexport-6_-_2022-04-12T134259.608" data-name="svgexport-6 - 2022-04-12T134259.608" xmlns="http://www.w3.org/2000/svg" width="20.679" height="19.817" viewBox="0 0 20.679 19.817">
  <path id="Path_1157" data-name="Path 1157" d="M20.625,7.98a1.1,1.1,0,0,0-.946-.756l-5.969-.542-2.36-5.524a1.1,1.1,0,0,0-2.021,0L6.969,6.682,1,7.224A1.1,1.1,0,0,0,.376,9.148L4.887,13.1l-1.33,5.86a1.1,1.1,0,0,0,1.635,1.187l5.148-3.077,5.147,3.077a1.1,1.1,0,0,0,1.635-1.187l-1.33-5.86L20.3,9.148a1.1,1.1,0,0,0,.322-1.168Zm0,0" transform="translate(0 -0.491)" fill="#ffc107"/>
</svg>
