<svg id="svgexport-6_-_2022-04-11T132158.105" data-name="svgexport-6 - 2022-04-11T132158.105" xmlns="http://www.w3.org/2000/svg" width="30.422" height="30.445" viewBox="0 0 30.422 30.445">
  <g id="Group_15" data-name="Group 15">
    <path id="Path_29" data-name="Path 29" d="M12.733,25.074A12.537,12.537,0,1,1,25.27,12.537,12.551,12.551,0,0,1,12.733,25.074Zm0-22.7A10.161,10.161,0,1,0,22.894,12.537,10.172,10.172,0,0,0,12.733,2.377ZM30.27,30.1a1.188,1.188,0,0,0,0-1.681L24.952,23.1a1.188,1.188,0,1,0-1.681,1.681L28.589,30.1a1.189,1.189,0,0,0,1.681,0Z" transform="translate(-0.196 0)" fill="#fff"/>
  </g>
</svg>
