<svg xmlns="http://www.w3.org/2000/svg" version="1.1" xmlns:xlink="http://www.w3.org/1999/xlink" xmlns:svgjs="http://svgjs.com/svgjs" width="512" height="512" x="0" y="0" viewBox="0 0 512 512" style="enable-background:new 0 0 512 512" xml:space="preserve"><g>
<g xmlns="http://www.w3.org/2000/svg">
	<g>
		<path d="M442.885,303.099c-4.085-4.166-10.777-4.23-14.942-0.142l-94.391,92.61l-36.674-33.485    c-4.312-3.937-10.994-3.629-14.928,0.679c-3.935,4.31-3.631,10.993,0.679,14.928l44.06,40.229    c2.021,1.847,4.573,2.764,7.123,2.764c2.677,0,5.351-1.011,7.401-3.026l101.531-99.615    C446.91,313.954,446.972,307.264,442.885,303.099z" fill="#000000" data-original="#000000"></path>
	</g>
</g>
<g xmlns="http://www.w3.org/2000/svg">
	<g>
		<path d="M457.758,236.524V25.619c0-5.821-4.708-10.545-10.53-10.566L72.452,13.735c-2.851,0.004-5.59,1.135-7.587,3.173    L3.016,80.075l0.004,0.004C1.154,81.984,0,84.591,0,87.468v346.668c0,5.836,4.73,10.566,10.566,10.566h240.247    c27.083,32.697,67.975,53.562,113.65,53.562c81.352,0,147.537-66.185,147.537-147.537C512,304.74,490.845,263.603,457.758,236.524    z M76.841,34.884l344.928,1.214l-40.804,40.804H35.7L76.841,34.884z M436.625,51.129v170.958    c-12.555-7.07-26.241-12.354-40.716-15.509V91.845L436.625,51.129z M21.133,423.57V98.035h353.644v105.525    c-3.408-0.236-6.847-0.366-10.314-0.366c-81.351,0-147.536,66.185-147.536,147.536c0,26.474,7.014,51.339,19.274,72.841H21.133z     M364.463,477.133c-69.698,0-126.403-56.704-126.403-126.404c0-69.698,56.704-126.403,126.403-126.403    c69.7,0,126.404,56.704,126.404,126.403C490.867,420.43,434.163,477.133,364.463,477.133z" fill="#000000" data-original="#000000"></path>
	</g>
</g>
<g xmlns="http://www.w3.org/2000/svg">
</g>
<g xmlns="http://www.w3.org/2000/svg">
</g>
<g xmlns="http://www.w3.org/2000/svg">
</g>
<g xmlns="http://www.w3.org/2000/svg">
</g>
<g xmlns="http://www.w3.org/2000/svg">
</g>
<g xmlns="http://www.w3.org/2000/svg">
</g>
<g xmlns="http://www.w3.org/2000/svg">
</g>
<g xmlns="http://www.w3.org/2000/svg">
</g>
<g xmlns="http://www.w3.org/2000/svg">
</g>
<g xmlns="http://www.w3.org/2000/svg">
</g>
<g xmlns="http://www.w3.org/2000/svg">
</g>
<g xmlns="http://www.w3.org/2000/svg">
</g>
<g xmlns="http://www.w3.org/2000/svg">
</g>
<g xmlns="http://www.w3.org/2000/svg">
</g>
<g xmlns="http://www.w3.org/2000/svg">
</g>
</g></svg>