<svg xmlns="http://www.w3.org/2000/svg" version="1.1" xmlns:xlink="http://www.w3.org/1999/xlink" xmlns:svgjs="http://svgjs.com/svgjs" width="512" height="512" x="0" y="0" viewBox="0 0 512 512" style="enable-background:new 0 0 512 512" xml:space="preserve"><g><path xmlns="http://www.w3.org/2000/svg" d="m511.356 243.566c-1.02-5.17-3.34-10.059-6.72-14.149-55.378-66.89-42.493-51.325-63.366-76.545-6.08-7.349-15.039-11.559-24.578-11.559h-15.489c-4.14 0-7.499 3.36-7.499 7.499 0 4.14 3.36 7.499 7.499 7.499h15.489c5.05 0 9.799 2.23 13.019 6.12l5.98 7.22h-36.268c-10.669 0-19.349 9.069-19.349 20.229v42.407c0 11.159 8.679 20.229 19.349 20.229h97.543v111.243c0 5.8-4.72 10.519-10.519 10.519h-5.42c-2.669-16.939-13.266-31.46-28.018-39.327-32.844-17.512-73.286 2.714-79.025 39.327-9.68 0-10.99 0-22.478 0v-85.104-.06-128.723c0-2.25 1.83-4.08 4.08-4.08h15.619c4.15 0 7.5-3.36 7.5-7.499 0-4.14-3.35-7.499-7.5-7.499h-15.619c-1.4 0-2.77.15-4.08.44v-49.197c0-9.649-7.85-17.499-17.499-17.499h-244.473c-4.15 0-7.499 3.35-7.499 7.499 0 4.14 3.35 7.499 7.499 7.499h244.474c1.38 0 2.5 1.12 2.5 2.5v189.057h-321.509v-189.056c0-1.38 1.12-2.5 2.5-2.5h42.037c4.14 0 7.499-3.36 7.499-7.499 0-4.15-3.36-7.499-7.499-7.499h-42.037c-9.65-.001-17.499 7.849-17.499 17.498v259.443c0 20.559 16.719 37.278 37.278 37.278h37.697c3.319 27.466 26.664 47.667 53.696 47.667 27.633 0 50.617-20.607 53.896-47.667h58.476c4.15 0 7.499-3.35 7.499-7.5 0-4.14-3.35-7.499-7.499-7.499h-58.766c-9.512-60.357-97.504-60.843-107.043 0h-37.956c-12.279 0-22.279-9.989-22.279-22.279v-.64h18.639c5.51 0 10.689-2.15 14.589-6.04 12.924-12.957 3.74-35.218-14.589-35.218h-18.639v-13.429h321.508v77.605h-65.466c-4.14 0-7.5 3.36-7.5 7.499 0 4.15 3.36 7.5 7.5 7.5h102.683c2.11 17.459 12.549 32.908 28.288 41.297 8.1 4.32 16.819 6.37 25.408 6.37 27.683 0 50.628-20.662 53.896-47.667h5.13c14.069 0 25.518-11.449 25.518-25.518.002-124.248.254-115.835-.608-120.192zm-111.933-6.05c-2.4 0-4.35-2.34-4.35-5.23v-42.407c0-2.89 1.95-5.23 4.35-5.23h48.677l43.767 52.866h-92.444zm-232.414 136.761c1.064 4.671.96 8.489.96 8.489 0 16.98-11.023 32.379-27.788 37.487-25.188 7.642-50.607-11.193-50.607-37.507-.167-47.609 68.377-52.92 77.435-8.469zm-133.371-49.177c4.998 0 7.512 6.078 3.98 9.609-2.156 2.156-2.477 1.65-22.618 1.65v-11.259zm433.081 57.666c0 16.514-10.601 32.251-27.788 37.487-33.513 10.167-62.293-25.401-45.997-55.926 18.965-35.614 73.785-22.498 73.785 18.429z" fill="#000000" data-original="#000000"></path><path xmlns="http://www.w3.org/2000/svg" d="m128.761 412.834c20.301 0 34.468-19.661 28.848-38.557-8.444-28.692-49.245-28.683-57.686 0-5.661 19.036 8.677 38.557 28.838 38.557zm-12.449-38.557c5.978-8.78 18.905-8.784 24.908 0 6.865 10.068-.475 23.558-12.459 23.558-12.037 0-19.269-13.555-12.449-23.558z" fill="#000000" data-original="#000000"></path><path xmlns="http://www.w3.org/2000/svg" d="m398.673 374.277c-5.62 18.898 8.548 38.557 28.848 38.557 16.643 0 30.068-13.566 30.068-30.068 0-34.877-49.246-41.345-58.916-8.489zm42.427 14.999c-2.43 5.06-7.599 8.559-13.579 8.559-12.049 0-19.279-13.557-12.459-23.558 2.72-3.98 7.289-6.59 12.459-6.59 11.148 0 18.38 11.738 13.579 21.589z" fill="#000000" data-original="#000000"></path><path xmlns="http://www.w3.org/2000/svg" d="m413.274 280.031c4.142 0 7.499-3.358 7.499-7.5s-3.358-7.499-7.499-7.499h-24.858c-4.142 0-7.499 3.358-7.499 7.499 0 4.142 3.358 7.5 7.499 7.5z" fill="#000000" data-original="#000000"></path></g></svg>