<svg xmlns="http://www.w3.org/2000/svg" width="46.296" height="32.552" viewBox="0 0 46.296 32.552">
  <g id="svgexport-10_4_" data-name="svgexport-10 (4)" transform="translate(0)">
    <path id="Path_490" data-name="Path 490" d="M167.316,202.5a8.826,8.826,0,0,0-8.816,8.816v5.425h17.632v-5.425A8.826,8.826,0,0,0,167.316,202.5Zm0,0" transform="translate(-144.168 -184.189)" fill="#fff"/>
    <path id="Path_491" data-name="Path 491" d="M200.707,73.6a6.1,6.1,0,1,0-6.1,6.1A6.11,6.11,0,0,0,200.707,73.6Zm0,0" transform="translate(-171.455 -61.397)" fill="#fff"/>
    <path id="Path_492" data-name="Path 492" d="M43.207,6.1a6.1,6.1,0,1,0-6.1,6.1A6.11,6.11,0,0,0,43.207,6.1Zm0,0" transform="translate(-28.196)" fill="#fff"/>
    <path id="Path_493" data-name="Path 493" d="M332.643,135a8.817,8.817,0,0,0-8.038,5.233,11.508,11.508,0,0,1,5.325,9.686H341.55v-6.1A8.9,8.9,0,0,0,332.643,135Zm0,0" transform="translate(-295.253 -122.793)" fill="#fff"/>
    <path id="Path_494" data-name="Path 494" d="M358.207,6.1a6.1,6.1,0,1,0-6.1,6.1A6.11,6.11,0,0,0,358.207,6.1Zm0,0" transform="translate(-314.713)" fill="#fff"/>
    <path id="Path_495" data-name="Path 495" d="M16.945,140.233A8.861,8.861,0,0,0,0,143.816v6.1H11.62A11.508,11.508,0,0,1,16.945,140.233Zm0,0" transform="translate(0 -122.793)" fill="#fff"/>
  </g>
</svg>
